<svg id="visual" viewBox="0 0 900 600" width="900" height="600" xmlns="http://www.w3.org/2000/svg" xmlns:xlink="http://www.w3.org/1999/xlink" version="1.1"><g><g transform="translate(166 339)"><path d="M0 -132.4L114.7 -66.2L114.7 66.2L0 132.4L-114.7 66.2L-114.7 -66.2Z" fill="none" stroke="#2f91be" stroke-width="2"></path></g><g transform="translate(448 167)"><path d="M0 -117L101.3 -58.5L101.3 58.5L0 117L-101.3 58.5L-101.3 -58.5Z" fill="none" stroke="#2f91be" stroke-width="2"></path></g><g transform="translate(723 162)"><path d="M0 -122L105.7 -61L105.7 61L0 122L-105.7 61L-105.7 -61Z" stroke="#2f91be" fill="none" stroke-width="2"></path></g><g transform="translate(757 466)"><path d="M0 -59L51.1 -29.5L51.1 29.5L0 59L-51.1 29.5L-51.1 -29.5Z" stroke="#2f91be" fill="none" stroke-width="2"></path></g><g transform="translate(422 433)"><path d="M0 -75L65 -37.5L65 37.5L0 75L-65 37.5L-65 -37.5Z" stroke="#2f91be" fill="none" stroke-width="2"></path></g></g></svg>