<?xml version="1.0" encoding="UTF-8"?>
<!DOCTYPE svg PUBLIC "-//W3C//DTD SVG 1.1//EN" "http://www.w3.org/Graphics/SVG/1.1/DTD/svg11.dtd">
<svg xmlns="http://www.w3.org/2000/svg" version="1.1" width="611px" height="657px" style="shape-rendering:geometricPrecision; text-rendering:geometricPrecision; image-rendering:optimizeQuality; fill-rule:evenodd; clip-rule:evenodd" xmlns:xlink="http://www.w3.org/1999/xlink">
<g><path style="opacity:0.998" fill="#b3e0d0" d="M 561.5,-0.5 C 576.167,-0.5 590.833,-0.5 605.5,-0.5C 607.5,0.833333 609.167,2.5 610.5,4.5C 610.5,17.1667 610.5,29.8333 610.5,42.5C 609.78,45.0601 608.113,46.8935 605.5,48C 590.417,48.629 575.417,47.9624 560.5,46C 558.513,44.6811 557.346,42.8477 557,40.5C 556.333,28.8333 556.333,17.1667 557,5.5C 557.804,2.85408 559.304,0.854084 561.5,-0.5 Z"/></g>
<g><path style="opacity:0.964" fill="#7eb2a2" d="M 502.5,3.5 C 510.656,2.34345 518.99,2.17678 527.5,3C 523.458,9.58484 519.291,16.0848 515,22.5C 510.81,16.1015 506.643,9.76816 502.5,3.5 Z"/></g>
<g><path style="opacity:0.993" fill="#fb9302" d="M 489.5,34.5 C 489.667,54.5028 489.5,74.5028 489,94.5C 487.932,99.2353 485.099,102.402 480.5,104C 467.498,104.318 454.498,104.152 441.5,103.5C 419.859,101.802 398.193,100.302 376.5,99C 369.434,98.5531 364.601,95.0531 362,88.5C 361.333,63.1667 361.333,37.8333 362,12.5C 364.968,6.2131 369.968,3.2131 377,3.5C 411.205,5.64694 445.372,8.14694 479.5,11C 488.896,16.0483 492.23,23.8817 489.5,34.5 Z"/></g>
<g><path style="opacity:0.993" fill="#533c5e" d="M 232.5,43.5 C 228.651,43.5973 224.817,43.9306 221,44.5C 218.287,44.589 215.787,43.9224 213.5,42.5C 213.435,46.9961 213.102,51.6628 212.5,56.5C 210.095,57.7682 207.428,58.4349 204.5,58.5C 202.335,58.1159 200.668,58.7826 199.5,60.5C 200.871,62.8567 202.205,65.19 203.5,67.5C 202.74,69.4366 201.74,71.2699 200.5,73C 194.797,72.7181 189.13,71.8848 183.5,70.5C 187.948,56.7674 194.615,44.2674 203.5,33C 210.776,31.8678 218.109,30.8678 225.5,30C 227.189,27.4425 228.356,24.6092 229,21.5C 232.488,18.5385 235.155,19.2052 237,23.5C 240.129,31.4254 238.629,38.092 232.5,43.5 Z"/></g>
<g><path style="opacity:1" fill="#fff9f1" d="M 436.5,31.5 C 438.635,31.147 439.968,31.9803 440.5,34C 432.8,47.8985 424.967,61.7318 417,75.5C 413.245,79.7875 411.578,79.1208 412,73.5C 420.442,59.609 428.609,45.609 436.5,31.5 Z"/></g>
<g><path style="opacity:0.999" fill="#b3dfcf" d="M 489.5,34.5 C 506.167,34.5 522.833,34.5 539.5,34.5C 539.5,62.5 539.5,90.5 539.5,118.5C 538.506,128.653 538.172,138.986 538.5,149.5C 528.484,149.547 518.484,149.213 508.5,148.5C 486.178,146.99 463.845,145.656 441.5,144.5C 441.5,130.833 441.5,117.167 441.5,103.5C 454.498,104.152 467.498,104.318 480.5,104C 485.099,102.402 487.932,99.2353 489,94.5C 489.5,74.5028 489.667,54.5028 489.5,34.5 Z"/></g>
<g><path style="opacity:1" fill="#fff9f2" d="M 400.5,37.5 C 401.833,37.5 403.167,37.5 404.5,37.5C 404.714,39.1439 404.38,40.6439 403.5,42C 398.167,45.3333 392.833,48.6667 387.5,52C 392.833,55.3333 398.167,58.6667 403.5,62C 404.38,63.3561 404.714,64.8561 404.5,66.5C 402.345,66.628 400.345,66.128 398.5,65C 391.5,60.6667 384.5,56.3333 377.5,52C 385.231,47.142 392.898,42.3086 400.5,37.5 Z"/></g>
<g><path style="opacity:1" fill="#fffaf3" d="M 442.5,40.5 C 445.425,40.4598 448.091,41.2932 450.5,43C 457.002,46.75 463.335,50.75 469.5,55C 461.667,59.4155 454,64.0822 446.5,69C 442.176,69.0453 441.51,67.3786 444.5,64C 449.874,61.3192 454.874,58.1525 459.5,54.5C 454.332,51.0815 448.998,47.9148 443.5,45C 442.62,43.6439 442.286,42.1439 442.5,40.5 Z"/></g>
<g><path style="opacity:1" fill="#f2b1a5" d="M 232.5,43.5 C 232.5,47.5 232.5,51.5 232.5,55.5C 230.473,55.6621 228.473,55.4955 226.5,55C 223.256,51.5523 220.256,51.719 217.5,55.5C 215.955,56.4519 214.288,56.7852 212.5,56.5C 213.102,51.6628 213.435,46.9961 213.5,42.5C 215.787,43.9224 218.287,44.589 221,44.5C 224.817,43.9306 228.651,43.5973 232.5,43.5 Z"/></g>
<g><path style="opacity:1" fill="#534b47" d="M 219.5,47.5 C 222.665,46.9635 225.331,47.7969 227.5,50C 225.822,49.8877 224.155,49.3877 222.5,48.5C 220.945,48.722 219.611,49.3887 218.5,50.5C 218.167,50.3333 217.833,50.1667 217.5,50C 218.381,49.2917 219.047,48.4584 219.5,47.5 Z"/></g>
<g><path style="opacity:1" fill="#fcf6f5" d="M 232.5,55.5 C 232.5,56.5 232.5,57.5 232.5,58.5C 230.473,58.3379 228.473,58.5045 226.5,59C 222.872,62.278 219.372,62.1114 216,58.5C 214.467,58.7728 212.967,59.1062 211.5,59.5C 209.784,59.6287 208.117,59.962 206.5,60.5C 205.5,60.1667 204.833,59.5 204.5,58.5C 207.428,58.4349 210.095,57.7682 212.5,56.5C 214.288,56.7852 215.955,56.4519 217.5,55.5C 220.256,51.719 223.256,51.5523 226.5,55C 228.473,55.4955 230.473,55.6621 232.5,55.5 Z"/></g>
<g><path style="opacity:0.999" fill="#f7b5a7" d="M 204.5,58.5 C 204.833,59.5 205.5,60.1667 206.5,60.5C 206.384,63.9103 208.05,65.2436 211.5,64.5C 211.5,62.8333 211.5,61.1667 211.5,59.5C 212.967,59.1062 214.467,58.7728 216,58.5C 219.372,62.1114 222.872,62.278 226.5,59C 228.473,58.5045 230.473,58.3379 232.5,58.5C 232.5,61.8333 232.5,65.1667 232.5,68.5C 230.097,68.448 227.764,68.7814 225.5,69.5C 219.031,68.8923 213.698,71.3923 209.5,77C 215.508,78.3781 220.841,77.2114 225.5,73.5C 225.085,77.8302 224.085,81.9968 222.5,86C 214.368,84.5566 208.035,87.0566 203.5,93.5C 188.671,93.0027 174.004,92.3361 159.5,91.5C 167.475,84.529 175.475,77.529 183.5,70.5C 189.13,71.8848 194.797,72.7181 200.5,73C 201.74,71.2699 202.74,69.4366 203.5,67.5C 202.205,65.19 200.871,62.8567 199.5,60.5C 200.668,58.7826 202.335,58.1159 204.5,58.5 Z"/></g>
<g><path style="opacity:1" fill="#664b69" d="M 211.5,59.5 C 211.5,61.1667 211.5,62.8333 211.5,64.5C 208.05,65.2436 206.384,63.9103 206.5,60.5C 208.117,59.962 209.784,59.6287 211.5,59.5 Z"/></g>
<g><path style="opacity:1" fill="#5b4261" d="M 225.5,69.5 C 225.5,70.8333 225.5,72.1667 225.5,73.5C 220.841,77.2114 215.508,78.3781 209.5,77C 213.698,71.3923 219.031,68.8923 225.5,69.5 Z"/></g>
<g><path style="opacity:0.999" fill="#01adc7" d="M 159.5,91.5 C 174.004,92.3361 188.671,93.0027 203.5,93.5C 223.6,93.5717 242.934,97.405 261.5,105C 270.195,110.026 276.362,117.193 280,126.5C 284.758,145.27 285.758,164.27 283,183.5C 279.139,214.332 274.306,244.998 268.5,275.5C 267.662,275.842 267.328,276.508 267.5,277.5C 266.079,282.703 264.746,288.036 263.5,293.5C 263.167,296.833 262.833,300.167 262.5,303.5C 261.596,305.638 260.929,307.971 260.5,310.5C 260.543,311.416 260.876,312.083 261.5,312.5C 258.762,316.329 257.596,320.663 258,325.5C 261.314,321.352 264.814,317.352 268.5,313.5C 267.675,312.614 266.675,312.281 265.5,312.5C 292.242,306.763 319.242,301.763 346.5,297.5C 347.768,302.97 349.435,308.304 351.5,313.5C 337.734,319.422 323.734,324.756 309.5,329.5C 288.052,337.695 266.052,343.361 243.5,346.5C 233.097,347.469 223.097,345.969 213.5,342C 207.365,338.242 203.865,332.742 203,325.5C 199.713,308.986 198.713,292.319 200,275.5C 202.373,256.26 205.706,237.26 210,218.5C 200.78,246.601 195.946,275.435 195.5,305C 194.646,316.5 196.146,327.666 200,338.5C 200.883,341.102 202.383,343.269 204.5,345C 216.903,352.658 229.903,354.491 243.5,350.5C 244.447,360.33 245.114,370.33 245.5,380.5C 228.179,405.796 210.846,431.13 193.5,456.5C 193.167,456.5 192.833,456.5 192.5,456.5C 164.881,458.748 137.214,459.581 109.5,459C 93.2279,459.38 77.8946,455.88 63.5,448.5C 46.4544,427.563 36.2877,403.563 33,376.5C 31.819,366.2 31.319,355.867 31.5,345.5C 51.6919,350.021 70.3586,346.521 87.5,335C 99.7892,323.689 103.956,309.855 100,293.5C 95.4655,282.297 87.2989,275.463 75.5,273C 60.943,271.518 46.6097,268.852 32.5,265C 31.0577,264.623 30.0577,263.79 29.5,262.5C 36.2228,221.941 48.0561,182.941 65,145.5C 72.4366,128.126 83.6033,113.626 98.5,102C 106.121,96.9038 114.454,93.5704 123.5,92C 135.495,91.5001 147.495,91.3335 159.5,91.5 Z"/></g>
<g><path style="opacity:0.999" fill="#523b5d" d="M 539.5,118.5 C 563.243,120.537 586.91,122.87 610.5,125.5C 610.5,155.833 610.5,186.167 610.5,216.5C 576.504,211.834 542.504,207.167 508.5,202.5C 508.5,184.5 508.5,166.5 508.5,148.5C 518.484,149.213 528.484,149.547 538.5,149.5C 538.172,138.986 538.506,128.653 539.5,118.5 Z"/></g>
<g><path style="opacity:0.93" fill="#7fb3a3" d="M 394.5,122.5 C 395.376,122.369 396.043,122.702 396.5,123.5C 399.833,130.167 403.167,136.833 406.5,143.5C 398.444,144.329 390.444,143.829 382.5,142C 387.149,135.862 391.149,129.362 394.5,122.5 Z"/></g>
<g><path style="opacity:0.997" fill="#b2dfcf" d="M 456.5,303.5 C 457.155,313.334 457.821,323.167 458.5,333C 469.833,333.667 481.167,333.667 492.5,333C 493.38,331.644 493.714,330.144 493.5,328.5C 503.278,327.72 508.278,322.387 508.5,312.5C 530.535,315.338 552.535,318.505 574.5,322C 575.626,325.744 575.793,329.577 575,333.5C 571.272,335.131 567.439,336.465 563.5,337.5C 523.243,352.03 482.91,366.363 442.5,380.5C 376.128,369.605 309.795,358.605 243.5,347.5C 243.5,347.167 243.5,346.833 243.5,346.5C 266.052,343.361 288.052,337.695 309.5,329.5C 309.881,330.931 310.881,331.764 312.5,332C 326.892,335.515 341.225,339.181 355.5,343C 360.287,343.879 364.953,343.545 369.5,342C 388.325,328.421 407.325,315.087 426.5,302C 406.668,301.697 387.001,299.864 367.5,296.5C 365.236,295.781 362.903,295.448 360.5,295.5C 345.921,291.87 331.255,288.204 316.5,284.5C 316.586,283.504 316.252,282.671 315.5,282C 312.081,281.752 308.747,281.252 305.5,280.5C 313.663,254.519 321.83,228.519 330,202.5C 331.506,197.825 334.673,195.158 339.5,194.5C 375.497,197.286 411.497,200.119 447.5,203C 452.155,205.897 453.655,210.063 452,215.5C 444.089,242.978 436.256,270.478 428.5,298C 428.905,298.945 429.572,299.612 430.5,300C 439.133,301.495 447.8,302.662 456.5,303.5 Z"/></g>
<g><path style="opacity:1" fill="#3b3d3b" d="M 337.5,203.5 C 372.469,206.29 407.469,208.623 442.5,210.5C 435.213,238.748 428.213,267.081 421.5,295.5C 385.885,288.888 350.219,282.555 314.5,276.5C 321.965,252.106 329.631,227.773 337.5,203.5 Z"/></g>
<g><path style="opacity:1" fill="#abd5c6" d="M 344.5,214.5 C 360.162,215.889 375.829,217.222 391.5,218.5C 391.5,219.833 391.5,221.167 391.5,222.5C 375.815,221.354 360.149,220.021 344.5,218.5C 344.5,217.167 344.5,215.833 344.5,214.5 Z"/></g>
<g><path style="opacity:1" fill="#a2c9bb" d="M 407.5,220.5 C 412.463,221.254 417.463,221.587 422.5,221.5C 422.5,223.167 422.5,224.833 422.5,226.5C 417.518,225.947 412.518,225.613 407.5,225.5C 407.5,223.833 407.5,222.167 407.5,220.5 Z"/></g>
<g><path style="opacity:1" fill="#a3cabc" d="M 341.5,222.5 C 346.181,222.669 350.848,223.002 355.5,223.5C 355.5,224.833 355.5,226.167 355.5,227.5C 350.807,227.46 346.141,227.127 341.5,226.5C 341.5,225.167 341.5,223.833 341.5,222.5 Z"/></g>
<g><path style="opacity:1" fill="#a9d3c4" d="M 365.5,225.5 C 383.543,226.726 401.543,228.392 419.5,230.5C 419.5,231.833 419.5,233.167 419.5,234.5C 401.498,232.833 383.498,231.166 365.5,229.5C 365.5,228.167 365.5,226.833 365.5,225.5 Z"/></g>
<g><path style="opacity:1" fill="#abd6c6" d="M 339.5,230.5 C 349.789,231.779 360.122,232.779 370.5,233.5C 370.5,234.833 370.5,236.167 370.5,237.5C 360.104,237.059 349.771,236.059 339.5,234.5C 339.5,233.167 339.5,231.833 339.5,230.5 Z"/></g>
<g><path style="opacity:1" fill="#a7cfc1" d="M 386.5,235.5 C 396.815,236.68 407.148,237.68 417.5,238.5C 417.5,239.833 417.5,241.167 417.5,242.5C 407.809,241.998 398.142,241.165 388.5,240C 386.893,238.951 386.227,237.451 386.5,235.5 Z"/></g>
<g><path style="opacity:1" fill="#abd5c6" d="M 335.5,242.5 C 341.855,242.979 348.188,243.646 354.5,244.5C 354.5,245.5 354.5,246.5 354.5,247.5C 348.122,247.705 341.789,247.372 335.5,246.5C 335.5,245.167 335.5,243.833 335.5,242.5 Z"/></g>
<g><path style="opacity:1" fill="#a7d0c1" d="M 369.5,246.5 C 379.819,247.355 390.153,248.022 400.5,248.5C 400.5,250.167 400.5,251.833 400.5,253.5C 390.221,252.004 379.888,251.004 369.5,250.5C 369.5,249.167 369.5,247.833 369.5,246.5 Z"/></g>
<g><path style="opacity:1" fill="#0082a4" d="M 243.5,346.5 C 243.5,346.833 243.5,347.167 243.5,347.5C 243.5,348.5 243.5,349.5 243.5,350.5C 229.903,354.491 216.903,352.658 204.5,345C 202.383,343.269 200.883,341.102 200,338.5C 196.146,327.666 194.646,316.5 195.5,305C 195.946,275.435 200.78,246.601 210,218.5C 205.706,237.26 202.373,256.26 200,275.5C 198.713,292.319 199.713,308.986 203,325.5C 203.865,332.742 207.365,338.242 213.5,342C 223.097,345.969 233.097,347.469 243.5,346.5 Z"/></g>
<g><path style="opacity:1" fill="#aedaca" d="M 333.5,253.5 C 344.488,254.915 355.488,256.249 366.5,257.5C 366.5,258.833 366.5,260.167 366.5,261.5C 355.536,259.921 344.536,258.588 333.5,257.5C 333.5,256.167 333.5,254.833 333.5,253.5 Z"/></g>
<g><path style="opacity:0.999" fill="#513b5d" d="M 29.5,262.5 C 30.0577,263.79 31.0577,264.623 32.5,265C 46.6097,268.852 60.943,271.518 75.5,273C 87.2989,275.463 95.4655,282.297 100,293.5C 103.956,309.855 99.7892,323.689 87.5,335C 70.3586,346.521 51.6919,350.021 31.5,345.5C 28.0369,344.901 24.7036,343.901 21.5,342.5C 10.1213,337.131 2.78793,328.465 -0.5,316.5C -0.5,309.167 -0.5,301.833 -0.5,294.5C 1.32624,284.519 4.49291,274.853 9,265.5C 10.6374,263.19 12.804,261.69 15.5,261C 20.2619,260.523 24.9286,261.023 29.5,262.5 Z"/></g>
<g><path style="opacity:1" fill="#8fccc8" d="M 268.5,275.5 C 272.387,275.646 276.054,276.313 279.5,277.5C 275.5,277.5 271.5,277.5 267.5,277.5C 267.328,276.508 267.662,275.842 268.5,275.5 Z"/></g>
<g><path style="opacity:1" fill="#1283a4" d="M 267.5,277.5 C 271.5,277.5 275.5,277.5 279.5,277.5C 281.5,277.5 283.5,277.5 285.5,277.5C 286.26,282.15 286.926,286.817 287.5,291.5C 286.833,291.5 286.167,291.5 285.5,291.5C 278.144,292.014 270.81,292.681 263.5,293.5C 264.746,288.036 266.079,282.703 267.5,277.5 Z"/></g>
<g><path style="opacity:0.998" fill="#f8b7a9" d="M 285.5,277.5 C 292.214,278.356 298.88,279.356 305.5,280.5C 308.747,281.252 312.081,281.752 315.5,282C 316.252,282.671 316.586,283.504 316.5,284.5C 317.73,286.297 318.396,288.297 318.5,290.5C 311.8,290.17 305.134,290.503 298.5,291.5C 299.648,293.149 300.981,294.649 302.5,296C 301.333,296.167 300.167,296.333 299,296.5C 295,295.251 291.166,293.584 287.5,291.5C 286.926,286.817 286.26,282.15 285.5,277.5 Z"/></g>
<g><path style="opacity:1" fill="#fdfdfc" d="M 316.5,284.5 C 331.255,288.204 345.921,291.87 360.5,295.5C 355.99,296.341 351.324,297.008 346.5,297.5C 319.242,301.763 292.242,306.763 265.5,312.5C 264.167,312.5 262.833,312.5 261.5,312.5C 260.876,312.083 260.543,311.416 260.5,310.5C 260.929,307.971 261.596,305.638 262.5,303.5C 270.359,299.739 278.025,295.739 285.5,291.5C 286.167,291.5 286.833,291.5 287.5,291.5C 291.166,293.584 295,295.251 299,296.5C 300.167,296.333 301.333,296.167 302.5,296C 300.981,294.649 299.648,293.149 298.5,291.5C 305.134,290.503 311.8,290.17 318.5,290.5C 318.396,288.297 317.73,286.297 316.5,284.5 Z"/></g>
<g><path style="opacity:0.983" fill="#01a650" d="M 508.5,312.5 C 508.278,322.387 503.278,327.72 493.5,328.5C 493.714,330.144 493.38,331.644 492.5,333C 481.167,333.667 469.833,333.667 458.5,333C 457.821,323.167 457.155,313.334 456.5,303.5C 456.5,298.5 456.5,293.5 456.5,288.5C 469.167,288.5 481.833,288.5 494.5,288.5C 494.5,290.167 494.5,291.833 494.5,293.5C 505.252,295.262 509.919,301.595 508.5,312.5 Z M 501.5,310.5 C 499.05,310.702 496.717,310.369 494.5,309.5C 494.5,306.833 494.5,304.167 494.5,301.5C 499.389,302.4 501.723,305.4 501.5,310.5 Z"/></g>
<g><path style="opacity:1" fill="#b2dfd0" d="M 285.5,291.5 C 278.025,295.739 270.359,299.739 262.5,303.5C 262.833,300.167 263.167,296.833 263.5,293.5C 270.81,292.681 278.144,292.014 285.5,291.5 Z"/></g>
<g><path style="opacity:1" fill="#f8b7a9" d="M 360.5,295.5 C 362.903,295.448 365.236,295.781 367.5,296.5C 371.952,298.541 376.618,300.208 381.5,301.5C 381.5,304.833 381.5,308.167 381.5,311.5C 371.52,312.422 361.52,313.088 351.5,313.5C 349.435,308.304 347.768,302.97 346.5,297.5C 351.324,297.008 355.99,296.341 360.5,295.5 Z"/></g>
<g><path style="opacity:1" fill="#fdfefd" d="M 367.5,296.5 C 387.001,299.864 406.668,301.697 426.5,302C 407.325,315.087 388.325,328.421 369.5,342C 364.953,343.545 360.287,343.879 355.5,343C 341.225,339.181 326.892,335.515 312.5,332C 310.881,331.764 309.881,330.931 309.5,329.5C 323.734,324.756 337.734,319.422 351.5,313.5C 361.52,313.088 371.52,312.422 381.5,311.5C 381.5,308.167 381.5,304.833 381.5,301.5C 376.618,300.208 371.952,298.541 367.5,296.5 Z"/></g>
<g><path style="opacity:0.994" fill="#a9dcc8" d="M 494.5,309.5 C 496.717,310.369 499.05,310.702 501.5,310.5C 502.773,317.319 500.106,321.319 493.5,322.5C 493.231,318.069 493.564,313.735 494.5,309.5 Z"/></g>
<g><path style="opacity:1" fill="#0184a6" d="M 261.5,312.5 C 262.833,312.5 264.167,312.5 265.5,312.5C 266.675,312.281 267.675,312.614 268.5,313.5C 264.814,317.352 261.314,321.352 258,325.5C 257.596,320.663 258.762,316.329 261.5,312.5 Z"/></g>
<g><path style="opacity:0.998" fill="#7db0a1" d="M 563.5,337.5 C 563.5,342.833 563.5,348.167 563.5,353.5C 521.241,368.031 478.908,382.364 436.5,396.5C 436.5,418.167 436.5,439.833 436.5,461.5C 418.816,458.608 401.149,455.608 383.5,452.5C 388.052,441.624 390.719,430.29 391.5,418.5C 391.46,403.616 384.127,394.449 369.5,391C 345.061,386.263 320.395,383.263 295.5,382C 278.838,381.266 262.172,380.766 245.5,380.5C 245.114,370.33 244.447,360.33 243.5,350.5C 243.5,349.5 243.5,348.5 243.5,347.5C 309.795,358.605 376.128,369.605 442.5,380.5C 482.91,366.363 523.243,352.03 563.5,337.5 Z"/></g>
<g><path style="opacity:0.971" fill="#3a3c3a" d="M 21.5,342.5 C 24.7036,343.901 28.0369,344.901 31.5,345.5C 31.319,355.867 31.819,366.2 33,376.5C 36.2877,403.563 46.4544,427.563 63.5,448.5C 70.6355,456.632 78.9688,463.299 88.5,468.5C 91.3353,471.671 91.0019,474.504 87.5,477C 77.2399,474.128 68.4066,468.628 61,460.5C 60.6012,460.728 60.4346,461.062 60.5,461.5C 37.5033,435.735 24.67,405.402 22,370.5C 21.5002,361.173 21.3335,351.839 21.5,342.5 Z"/></g>
<g><path style="opacity:0.995" fill="#b2dfcf" d="M 563.5,353.5 C 563.667,422.501 563.5,491.501 563,560.5C 520.975,575.263 478.808,589.597 436.5,603.5C 436.5,556.167 436.5,508.833 436.5,461.5C 436.5,439.833 436.5,418.167 436.5,396.5C 478.908,382.364 521.241,368.031 563.5,353.5 Z"/></g>
<g><path style="opacity:0.999" fill="#e63a5e" d="M 245.5,380.5 C 262.172,380.766 278.838,381.266 295.5,382C 320.395,383.263 345.061,386.263 369.5,391C 384.127,394.449 391.46,403.616 391.5,418.5C 390.719,430.29 388.052,441.624 383.5,452.5C 378.045,465.412 371.545,477.745 364,489.5C 333.919,533.931 300.419,575.765 263.5,615C 261.19,615.497 258.857,615.663 256.5,615.5C 251.5,615.5 246.5,615.5 241.5,615.5C 240.127,615.657 238.793,615.49 237.5,615C 256.902,582.357 275.902,549.524 294.5,516.5C 296.451,515.284 297.951,513.618 299,511.5C 302.935,503.906 307.268,496.573 312,489.5C 313.411,487.35 314.245,485.016 314.5,482.5C 318.416,477.004 322.082,471.337 325.5,465.5C 325.56,466.043 325.893,466.376 326.5,466.5C 334.472,463.232 342.472,460.066 350.5,457C 343.42,456.205 336.42,456.372 329.5,457.5C 324.5,457.5 319.5,457.5 314.5,457.5C 301.344,456.504 288.01,456.171 274.5,456.5C 253.833,456.5 233.167,456.5 212.5,456.5C 206.167,456.5 199.833,456.5 193.5,456.5C 210.846,431.13 228.179,405.796 245.5,380.5 Z"/></g>
<g><path style="opacity:0.997" fill="#523b5d" d="M 63.5,448.5 C 77.8946,455.88 93.2279,459.38 109.5,459C 137.214,459.581 164.881,458.748 192.5,456.5C 189.951,462.044 186.618,467.044 182.5,471.5C 167.659,482.224 150.992,487.557 132.5,487.5C 128.833,487.5 125.167,487.5 121.5,487.5C 102.414,487.234 85.0806,481.734 69.5,471C 66.2956,467.964 63.2956,464.797 60.5,461.5C 60.4346,461.062 60.6012,460.728 61,460.5C 68.4066,468.628 77.2399,474.128 87.5,477C 91.0019,474.504 91.3353,471.671 88.5,468.5C 78.9688,463.299 70.6355,456.632 63.5,448.5 Z"/></g>
<g><path style="opacity:0.992" fill="#7db0a0" d="M 192.5,456.5 C 192.833,456.5 193.167,456.5 193.5,456.5C 199.833,456.5 206.167,456.5 212.5,456.5C 203.072,486.119 193.072,515.453 182.5,544.5C 182.5,520.167 182.5,495.833 182.5,471.5C 186.618,467.044 189.951,462.044 192.5,456.5 Z"/></g>
<g><path style="opacity:0.998" fill="#cb395d" d="M 212.5,456.5 C 233.167,456.5 253.833,456.5 274.5,456.5C 257.409,483.587 240.743,510.92 224.5,538.5C 211.194,560.456 197.528,582.123 183.5,603.5C 178.833,603.5 174.167,603.5 169.5,603.5C 167.076,603.808 164.743,603.474 162.5,602.5C 169.373,583.213 176.04,563.88 182.5,544.5C 193.072,515.453 203.072,486.119 212.5,456.5 Z"/></g>
<g><path style="opacity:0.994" fill="#7db0a0" d="M 274.5,456.5 C 288.01,456.171 301.344,456.504 314.5,457.5C 314.5,465.833 314.5,474.167 314.5,482.5C 314.245,485.016 313.411,487.35 312,489.5C 307.268,496.573 302.935,503.906 299,511.5C 297.951,513.618 296.451,515.284 294.5,516.5C 271.106,523.631 247.772,530.965 224.5,538.5C 240.743,510.92 257.409,483.587 274.5,456.5 Z"/></g>
<g><path style="opacity:1" fill="#ce395d" d="M 325.5,465.5 C 326.82,462.86 328.153,460.193 329.5,457.5C 336.42,456.372 343.42,456.205 350.5,457C 342.472,460.066 334.472,463.232 326.5,466.5C 325.893,466.376 325.56,466.043 325.5,465.5 Z"/></g>
<g><path style="opacity:0.941" fill="#3b3c3a" d="M 121.5,487.5 C 125.167,487.5 128.833,487.5 132.5,487.5C 130.902,530.508 129.235,573.508 127.5,616.5C 134.574,616.161 141.574,616.661 148.5,618C 151.576,618.911 153.909,620.744 155.5,623.5C 157.707,624.635 160.04,625.301 162.5,625.5C 163.568,626.434 164.901,626.768 166.5,626.5C 171.727,628.311 176.56,630.977 181,634.5C 184.29,641.917 182.123,646.917 174.5,649.5C 167.385,647.945 164.885,643.612 167,636.5C 167.903,635.299 169.069,634.465 170.5,634C 165.552,632.346 160.552,630.846 155.5,629.5C 153.287,631.774 150.621,633.274 147.5,634C 137.191,635.682 126.858,637.182 116.5,638.5C 116.167,639.167 115.833,639.833 115.5,640.5C 124.435,641.391 126.935,646.057 123,654.5C 122.005,655.066 121.172,655.733 120.5,656.5C 118.833,656.5 117.167,656.5 115.5,656.5C 112.66,655.314 110.494,653.314 109,650.5C 108.233,646.442 108.4,642.442 109.5,638.5C 102.465,637.842 95.4654,637.009 88.5,636C 86.301,634.454 84.1343,632.954 82,631.5C 79.0441,631.947 76.2108,632.78 73.5,634C 79.7526,641.033 78.4192,646.2 69.5,649.5C 61.62,646.606 59.4533,641.273 63,633.5C 65.7542,631.873 68.5875,630.373 71.5,629C 86.0817,623.415 101.082,619.582 116.5,617.5C 118.213,574.17 119.879,530.836 121.5,487.5 Z"/></g>
<g><path style="opacity:0.936" fill="#fb9400" d="M 169.5,603.5 C 174.167,603.5 178.833,603.5 183.5,603.5C 182.833,606.167 182.167,608.833 181.5,611.5C 189.259,611.637 195.926,614.304 201.5,619.5C 189.82,621.946 178.153,624.279 166.5,626.5C 164.901,626.768 163.568,626.434 162.5,625.5C 165.232,618.305 167.565,610.971 169.5,603.5 Z"/></g>
<g><path style="opacity:0.931" fill="#fb9400" d="M 241.5,615.5 C 246.5,615.5 251.5,615.5 256.5,615.5C 255.639,617.386 254.639,619.22 253.5,621C 261.783,621.867 269.116,624.867 275.5,630C 262.33,632.314 248.997,634.147 235.5,635.5C 234.167,635.167 232.833,634.833 231.5,634.5C 234.591,627.982 237.925,621.649 241.5,615.5 Z"/></g>
</svg>
